<?xml version="1.0" encoding="UTF-8" standalone="no"?>
<!DOCTYPE svg PUBLIC "-//W3C//DTD SVG 1.1//EN"
 "http://www.w3.org/Graphics/SVG/1.1/DTD/svg11.dtd">
<!-- Generated by graphviz version 2.38.0 (20140413.2041)
 -->
<!-- Title: rulextract Pages: 1 -->
<svg width="507pt" height="305pt"
 viewBox="0.00 0.00 506.50 305.00" xmlns="http://www.w3.org/2000/svg" xmlns:xlink="http://www.w3.org/1999/xlink">
<g id="graph0" class="graph" transform="scale(1 1) rotate(0) translate(4 301)">
<title>rulextract</title>
<polygon fill="white" stroke="none" points="-4,4 -4,-301 502.5,-301 502.5,4 -4,4"/>
<!-- td -->
<g id="node1" class="node"><title>td</title>
<polygon fill="none" stroke="black" points="364.5,-297 272.5,-297 272.5,-261 364.5,-261 364.5,-297"/>
<text text-anchor="middle" x="318.5" y="-275.3" font-family="Times,serif" font-size="14.00">Training data</text>
</g>
<!-- rc -->
<g id="node2" class="node"><title>rc</title>
<polygon fill="none" stroke="black" points="360,-210 277,-210 277,-174 360,-174 360,-210"/>
<text text-anchor="middle" x="318.5" y="-188.3" font-family="Times,serif" font-size="14.00">Rule counts</text>
</g>
<!-- td&#45;&gt;rc -->
<g id="edge1" class="edge"><title>td&#45;&gt;rc</title>
<path fill="none" stroke="black" d="M318.5,-260.799C318.5,-249.163 318.5,-233.548 318.5,-220.237"/>
<polygon fill="black" stroke="black" points="322,-220.175 318.5,-210.175 315,-220.175 322,-220.175"/>
<text text-anchor="middle" x="356.5" y="-231.8" font-family="Times,serif" font-size="14.00"> ExtractorJob</text>
</g>
<!-- s2t -->
<g id="node3" class="node"><title>s2t</title>
<polygon fill="none" stroke="black" points="201,-123 0,-123 0,-87 201,-87 201,-123"/>
<text text-anchor="middle" x="100.5" y="-101.3" font-family="Times,serif" font-size="14.00">Target given source probabilities</text>
</g>
<!-- rc&#45;&gt;s2t -->
<g id="edge2" class="edge"><title>rc&#45;&gt;s2t</title>
<path fill="none" stroke="black" d="M276.983,-174.812C241.906,-161.135 191.458,-141.465 153.475,-126.655"/>
<polygon fill="black" stroke="black" points="154.692,-123.373 144.104,-123.002 152.149,-129.895 154.692,-123.373"/>
<text text-anchor="middle" x="185.556" y="-162.68" font-family="Times,serif" font-size="14.00">Source2TargetJob</text>
</g>
<!-- t2s -->
<g id="node4" class="node"><title>t2s</title>
<polygon fill="none" stroke="black" points="418,-123 219,-123 219,-87 418,-87 418,-123"/>
<text text-anchor="middle" x="318.5" y="-101.3" font-family="Times,serif" font-size="14.00">Source given target probabilities</text>
</g>
<!-- rc&#45;&gt;t2s -->
<g id="edge3" class="edge"><title>rc&#45;&gt;t2s</title>
<path fill="none" stroke="black" d="M318.5,-173.799C318.5,-162.163 318.5,-146.548 318.5,-133.237"/>
<polygon fill="black" stroke="black" points="322,-133.175 318.5,-123.175 315,-133.175 322,-133.175"/>
<text text-anchor="middle" x="371.5" y="-144.8" font-family="Times,serif" font-size="14.00"> Target2SourceJob</text>
</g>
<!-- hf -->
<g id="node5" class="node"><title>hf</title>
<polygon fill="none" stroke="black" points="345.5,-36 291.5,-36 291.5,-0 345.5,-0 345.5,-36"/>
<text text-anchor="middle" x="318.5" y="-14.3" font-family="Times,serif" font-size="14.00">HFile</text>
</g>
<!-- rc&#45;&gt;hf -->
<g id="edge5" class="edge"><title>rc&#45;&gt;hf</title>
<path fill="none" stroke="black" d="M360.208,-189.312C384.346,-185.926 412.945,-177.273 428.5,-156 435.923,-145.848 450.329,-130.333 426.5,-87 411.514,-59.7475 380.492,-41.9368 355.526,-31.4072"/>
<polygon fill="black" stroke="black" points="356.54,-28.0439 345.955,-27.5939 353.949,-34.5467 356.54,-28.0439"/>
<text text-anchor="middle" x="468.5" y="-101.3" font-family="Times,serif" font-size="14.00"> MergeJob</text>
</g>
<!-- s2t&#45;&gt;hf -->
<g id="edge4" class="edge"><title>s2t&#45;&gt;hf</title>
<path fill="none" stroke="black" d="M144.353,-86.9012C184.643,-71.1919 243.69,-48.1689 281.613,-33.3824"/>
<polygon fill="black" stroke="black" points="283.2,-36.5204 291.245,-29.6268 280.657,-29.9986 283.2,-36.5204"/>
<text text-anchor="middle" x="253.5" y="-57.8" font-family="Times,serif" font-size="14.00"> MergeJob</text>
</g>
<!-- t2s&#45;&gt;hf -->
<g id="edge6" class="edge"><title>t2s&#45;&gt;hf</title>
<path fill="none" stroke="black" d="M318.5,-86.799C318.5,-75.1626 318.5,-59.5479 318.5,-46.2368"/>
<polygon fill="black" stroke="black" points="322,-46.1754 318.5,-36.1754 315,-46.1755 322,-46.1754"/>
<text text-anchor="middle" x="346.5" y="-57.8" font-family="Times,serif" font-size="14.00">MergeJob</text>
</g>
</g>
</svg>
